<svg xmlns="http://www.w3.org/2000/svg" width="300" height="300" viewBox="0 0 300 300">
  <defs>
    <linearGradient id="heartGradient" x1="0%" y1="0%" x2="100%" y2="100%">
      <stop offset="0%" style="stop-color:#ff9a9e;stop-opacity:0.3"/>
      <stop offset="100%" style="stop-color:#fad0c4;stop-opacity:0.3"/>
    </linearGradient>
  </defs>
  
  <rect width="100%" height="100%" fill="#f3e7f3" opacity="0.5"/>
  
  <path 
    d="M150 50 
       Q180 20, 210 50 
       T270 110 
       Q150 220, 30 110 
       T90 50 
       Q120 20, 150 50Z" 
    fill="url(#heartGradient)" 
    opacity="0.4" 
    transform="rotate(30 150 150) translate(-50, 50) scale(0.6)"
  />
  
  <path 
    d="M50 200 
       Q80 170, 110 200 
       T170 260 
       Q50 370, -70 260 
       T-10 200 
       Q20 170, 50 200Z" 
    fill="url(#heartGradient)" 
    opacity="0.3" 
    transform="rotate(-20 50 230) translate(50, -30) scale(0.4)"
  />
  
  <path 
    d="M250 250 
       Q280 220, 310 250 
       T370 310 
       Q250 420, 130 310 
       T190 250 
       Q220 220, 250 250Z" 
    fill="url(#heartGradient)" 
    opacity="0.2" 
    transform="rotate(10 250 280) translate(-50, -50) scale(0.5)"
  />
</svg>
